<?xml version="1.0" standalone="no"?>
<!DOCTYPE svg PUBLIC "-//W3C//DTD SVG 20010904//EN"
 "http://www.w3.org/TR/2001/REC-SVG-20010904/DTD/svg10.dtd">
<svg version="1.0" xmlns="http://www.w3.org/2000/svg"
 width="217.000000pt" height="197.000000pt" viewBox="0 0 217.000000 197.000000"
 preserveAspectRatio="xMidYMid meet">
<metadata>
Created by potrace 1.10, written by Peter Selinger 2001-2011
</metadata>
<g transform="translate(0.000000,197.000000) scale(0.100000,-0.100000)"
fill="#000000" stroke="none">
<path d="M17 1845 l1 -116 404 -2 403 -2 3 -42 3 -43 -55 0 c-47 0 -61 -4 -88
-29 l-33 -29 -3 -299 -3 -298 -103 -105 c-57 -58 -111 -116 -120 -130 -14 -21
-16 -63 -16 -328 l0 -303 39 -42 40 -42 636 0 636 0 40 42 39 42 0 304 0 304
-29 39 c-16 21 -70 79 -120 129 l-91 90 0 293 0 294 -34 34 c-31 31 -40 34
-91 34 l-56 0 3 43 3 42 358 0 357 0 0 118 0 118 -377 -3 c-359 -3 -380 -4
-423 -24 -56 -26 -115 -90 -129 -141 -6 -21 -11 -64 -11 -95 l0 -58 -75 0 -75
0 0 65 c0 105 -44 179 -135 228 -39 21 -51 22 -470 25 l-430 3 2 -116z m71 55
c-14 -23 -38 -27 -38 -7 0 19 10 27 32 27 16 0 16 -3 6 -20z m807 -49 c16 -9
40 -32 52 -51 20 -29 23 -46 23 -136 l0 -104 155 0 155 0 0 104 c0 90 3 107
23 136 12 19 38 43 57 54 33 20 53 21 378 24 l342 4 0 -39 0 -38 -340 0 -340
0 -25 -26 c-24 -24 -26 -33 -28 -122 l-2 -96 85 -3 85 -3 3 -300 2 -299 120
-122 120 -121 0 -283 c0 -250 -2 -286 -17 -302 -15 -17 -48 -18 -616 -18 -545
0 -602 2 -619 17 -17 15 -18 38 -18 300 l0 285 120 122 120 122 2 300 3 299
105 6 c58 3 97 6 88 7 -15 2 -18 13 -18 76 0 96 -13 130 -55 151 -30 14 -82
16 -397 15 l-363 -2 -3 34 -3 33 388 -3 c347 -3 391 -5 418 -21z m-811 -63
c19 -26 17 -29 -12 -21 -13 3 -22 13 -22 24 0 25 15 24 34 -3z m1336 -180 c0
-5 -6 -8 -14 -8 -16 0 -25 19 -18 38 3 9 8 8 18 -5 7 -10 14 -21 14 -25z
m-550 12 c0 -15 -7 -20 -27 -20 -25 0 -26 0 -8 20 10 11 22 20 27 20 4 0 8 -9
8 -20z m170 5 c7 -9 10 -18 7 -21 -10 -11 -37 5 -37 21 0 19 14 19 30 0z m193
-10 c-3 -8 -14 -15 -26 -15 -19 0 -19 1 -2 20 19 21 37 18 28 -5z"/>
<path d="M814 1481 c-2 -2 -4 -128 -4 -280 l0 -276 -120 -120 -120 -121 -1
-247 0 -247 556 0 557 0 0 246 0 247 -121 121 -122 122 3 277 3 276 -313 3
c-173 2 -316 1 -318 -1z m584 -187 c-3 -138 -5 -158 -21 -168 -15 -9 -25 -4
-63 37 l-45 47 -142 0 -141 0 -48 -47 c-40 -39 -51 -46 -66 -37 -15 10 -17 32
-20 167 l-3 156 276 1 276 0 -3 -156z m-360 -287 c-3 -162 -3 -164 -32 -205
-24 -35 -28 -49 -23 -82 19 -140 194 -178 267 -58 27 45 25 95 -5 141 -34 50
-13 49 52 -2 87 -69 123 -142 123 -247 0 -72 -25 -137 -76 -193 -79 -88 -186
-118 -304 -85 -87 24 -170 103 -194 184 -41 139 3 267 121 349 50 35 70 60 37
47 -9 -3 -22 -6 -29 -6 -21 0 -123 -98 -139 -134 -27 -61 -36 -100 -36 -162 0
-127 67 -236 179 -290 36 -18 55 -32 48 -36 -21 -13 -402 -9 -415 4 -15 15
-17 410 -3 437 5 9 53 60 106 112 127 124 128 126 133 277 2 38 4 42 28 42 29
0 57 13 97 46 16 13 38 24 49 24 19 0 20 -5 16 -163z m133 -10 l-2 -168 25
-20 c51 -40 42 -135 -15 -164 -93 -49 -190 38 -146 131 9 19 24 37 32 41 13 5
16 31 15 172 0 91 -1 169 0 172 0 4 21 6 46 5 l47 -1 -2 -168z m120 141 c24
-18 60 -34 79 -38 l35 -5 5 -90 c3 -50 10 -99 17 -110 6 -11 59 -67 117 -124
l106 -105 0 -217 c0 -189 -2 -218 -16 -223 -24 -9 -387 -7 -402 2 -9 6 0 14
30 28 24 10 64 40 90 66 126 126 137 294 30 442 -38 52 -121 101 -154 90 -17
-5 -18 7 -18 149 0 84 3 157 7 160 12 13 30 7 74 -25z"/>
<path d="M1096 764 c-32 -32 -10 -79 35 -72 32 5 45 31 31 62 -13 29 -43 34
-66 10z"/>
</g>
</svg>
