<?xml version="1.0" ?><svg xmlns:inkscape="http://www.inkscape.org/namespaces/inkscape" xmlns:sodipodi="http://sodipodi.sourceforge.net/DTD/sodipodi-0.dtd" xmlns="http://www.w3.org/2000/svg" xmlns:svg="http://www.w3.org/2000/svg" version="1.0" width="635.03326pt" height="576.15948pt" viewBox="0 0 635.03326 576.15948" preserveAspectRatio="xMidYMid" id="svg3" sodipodi:docname="Compressor2.svg" inkscape:version="1.4 (86a8ad7, 2024-10-11)">
  <defs id="defs3"/>
  <sodipodi:namedview id="namedview3" pagecolor="#ffffff" bordercolor="#000000" borderopacity="0.26666667" inkscape:showpageshadow="false" inkscape:pageopacity="0.0" inkscape:pagecheckerboard="false" inkscape:deskcolor="#d1d1d1" inkscape:document-units="pt" inkscape:zoom="0.7403085" inkscape:cx="260.02673" inkscape:cy="377.54531" inkscape:window-width="1920" inkscape:window-height="1027" inkscape:window-x="1258" inkscape:window-y="1072" inkscape:window-maximized="1" inkscape:current-layer="svg3"/>
  <g transform="matrix(0.1,0,0,-0.1,-4.1314039,585.15946)" fill="#5a5849" stroke="none" id="g3">
    <path d="m 53,5845 c -11,-8 -13,-70 -11,-335 l 3,-325 1197,-5 c 1096,-5 1199,-6 1214,-22 13,-13 17,-38 18,-123 1,-137 3,-135 -153,-135 -64,0 -133,-5 -153,-10 -52,-15 -128,-70 -160,-116 -59,-86 -58,-72 -58,-986 v -836 l -45,-45 c -25,-25 -45,-50 -45,-56 0,-6 -10,-16 -22,-22 -44,-23 -499,-493 -535,-552 -78,-128 -73,-64 -73,-1020 V 404 l 34,-71 c 53,-109 137,-184 254,-224 53,-18 114,-19 1847,-19 1744,0 1793,1 1848,19 125,43 205,114 261,231 l 31,65 3,815 c 2,561 -1,835 -8,880 -7,38 -28,97 -53,145 -37,74 -65,105 -346,387 -167,169 -308,313 -313,320 -4,7 -8,388 -8,847 0,742 -2,841 -16,893 -21,72 -76,139 -148,175 -46,24 -65,28 -191,33 -77,3 -146,9 -152,13 -9,6 -13,42 -13,120 v 113 l 29,17 c 28,16 101,17 1053,17 563,0 1029,0 1036,0 19,0 18,656 -2,667 -8,4 -507,6 -1108,3 -1212,-6 -1130,-2 -1278,-73 -109,-53 -161,-94 -245,-197 -116,-142 -154,-262 -155,-487 0,-206 15,-193 -223,-193 -131,0 -188,4 -200,13 -15,10 -18,36 -21,177 -6,220 -34,319 -131,455 -93,132 -216,219 -389,279 -60,20 -77,21 -1310,26 -825,3 -1254,2 -1263,-5 z m 2439,-230 c 63,-3 88,-10 142,-39 81,-43 131,-79 173,-125 33,-34 73,-102 73,-122 0,-6 6,-17 14,-24 19,-20 28,-175 24,-422 l -3,-202 450,-1 h 450 l 1,283 1,282 41,88 c 78,167 220,268 404,287 54,6 488,10 1026,10 h 932 l 10,-26 c 11,-28 11,-121 1,-169 l -6,-30 -1005,-5 -1005,-5 -40,-26 c -58,-38 -95,-78 -116,-124 -15,-34 -19,-79 -23,-286 -3,-135 -8,-254 -12,-263 -6,-15 14,-16 225,-16 241,1 279,-5 295,-45 3,-9 6,-409 6,-888 0,-813 1,-874 18,-897 9,-14 157,-164 328,-335 171,-170 323,-329 338,-351 56,-85 56,-83 56,-910 0,-554 -3,-770 -12,-795 -15,-46 -53,-95 -93,-119 -32,-20 -45,-20 -1814,-20 -1517,0 -1786,2 -1809,14 -37,19 -89,75 -101,109 -15,40 -15,1587 0,1642 6,21 22,55 35,75 13,19 173,184 354,366 l 330,332 v 885 885 l 31,26 31,26 221,1 c 122,0 249,1 282,1 h 60 l -50,7 -50,6 -5,255 c -6,280 -8,293 -70,364 -18,20 -52,47 -74,59 l -41,22 -1115,5 -1114,5 -13,25 c -16,33 -17,151 0,172 6,9 19,18 27,20 19,6 2088,0 2192,-7 z" id="path1"/>
    <path d="m 2430,4418 v -815 c 0,-534 -3,-810 -10,-829 -6,-15 -166,-183 -357,-375 -190,-191 -352,-357 -359,-370 -10,-19 -13,-175 -14,-730 0,-389 2,-714 6,-723 6,-15 144,-16 1669,-16 1507,0 1663,1 1669,16 3,9 6,336 6,728 v 712 l -23,30 c -12,17 -176,184 -364,373 l -343,342 c -0.9342,554.669 -3,1109.3342 -5,1664 l -937,3 c -747,2 -938,0 -938,-10 z M 3509.5327,3607.1691 C 3520.7991,3609.3 3520,3358 3520,2975 v -493 l 53,-53 c 80,-82 124,-195 110,-285 -9,-61 -48,-140 -88,-179 -90,-91 -251,-118 -365,-62 -90,44 -134,93 -164,181 -40,121 -6,242 99,349 l 55,56 v 492 c -1,271 3.2009,625.37 3.2009,625.37 83.4022,6.4184 200.2757,6.6084 286.3318,0.7991 z M 3854,2416 c 135,-91 252,-220 314,-349 65,-135 82,-206 88,-372 5,-121 3,-152 -15,-228 -72,-295 -265,-522 -534,-631 -116,-47 -169,-57 -311,-63 -268,-11 -480,75 -671,272 -124,127 -185,237 -232,412 -25,95 -25,311 0,408 51,197 133,336 272,463 102,93 259,182 282,159 3,-3 -7,-28 -22,-54 -75,-131 -97,-222 -77,-314 36,-161 137,-278 287,-334 65,-24 191,-25 260,-1 186,64 306,244 293,438 -5,59 -13,86 -52,162 -26,50 -46,96 -46,103 0,21 76,-12 164,-71 z" id="path2" sodipodi:nodetypes="sscccccscsccccccscscccccccccccccccccccccsccccccsc"/>
    <path d="m 3363.0029,4345.0049 c -801,0 -812.0078,-0.01 -823.0078,-20.0098 -7,-13 -9.998,-159 -7.998,-450 l 3.0029,-429.9902 30.9961,-31.0108 c 21,-20 44.001,-31.9912 71.001,-35.9912 38,-5 44.0039,-2.0049 119.0039,64.9951 44,38 101.0019,91.9961 127.0019,120.9961 l 48.003,51.0059 h 435.9961 435.996 l 43.0079,-44.0039 c 23,-25 79.9951,-78.9961 124.9951,-120.9961 78,-73 84,-76.9971 120,-71.9971 43,6 82.998,31.9951 97.998,64.9951 16,34 15.0039,873.9952 -0.9961,889.9952 -9,9 -206,12.0117 -825,12.0117 z" id="path6" style="fill:#ffffff"/>
    <path d="m 3308,2299 c -76,-40 -91,-145 -29,-201 76,-68 182,-38 212,60 10,36 9,45 -8,79 -23,45 -75,83 -112,83 -14,-1 -43,-10 -63,-21 z" id="path3" inkscape:label="path3"/>
  </g>
</svg>