 <svg  version="1.0" xmlns="http://www.w3.org/2000/svg"  width="651.000000pt" height="591.000000pt" viewBox="0 0 651.000000 591.000000"  preserveAspectRatio="xMidYMid meet">  <g transform="translate(0.000000,591.000000) scale(0.100000,-0.100000)" fill="#5a5849" stroke="none"> <path d="M53 5845 c-11 -8 -13 -70 -11 -335 l3 -325 1197 -5 c1096 -5 1199 -6 1214 -22 13 -13 17 -38 18 -123 1 -137 3 -135 -153 -135 -64 0 -133 -5 -153 -10 -52 -15 -128 -70 -160 -116 -59 -86 -58 -72 -58 -986 l0 -836 -45 -45 c-25 -25 -45 -50 -45 -56 0 -6 -10 -16 -22 -22 -44 -23 -499 -493 -535 -552 -78 -128 -73 -64 -73 -1020 l0 -853 34 -71 c53 -109 137 -184 254 -224 53 -18 114 -19 1847 -19 1744 0 1793 1 1848 19 125 43 205 114 261 231 l31 65 3 815 c2 561 -1 835 -8 880 -7 38 -28 97 -53 145 -37 74 -65 105 -346 387 -167 169 -308 313 -313 320 -4 7 -8 388 -8 847 0 742 -2 841 -16 893 -21 72 -76 139 -148 175 -46 24 -65 28 -191 33 -77 3 -146 9 -152 13 -9 6 -13 42 -13 120 l0 113 29 17 c28 16 101 17 1053 17 563 0 1029 0 1036 0 19 0 18 656 -2 667 -8 4 -507 6 -1108 3 -1212 -6 -1130 -2 -1278 -73 -109 -53 -161 -94 -245 -197 -116 -142 -154 -262 -155 -487 0 -206 15 -193 -223 -193 -131 0 -188 4 -200 13 -15 10 -18 36 -21 177 -6 220 -34 319 -131 455 -93 132 -216 219 -389 279 -60 20 -77 21 -1310 26 -825 3 -1254 2 -1263 -5z m2439 -230 c63 -3 88 -10 142 -39 81 -43 131 -79 173 -125 33 -34 73 -102 73 -122 0 -6 6 -17 14 -24 19 -20 28 -175 24 -422 l-3 -202 450 -1 450 0 1 283 1 282 41 88 c78 167 220 268 404 287 54 6 488 10 1026 10 l932 0 10 -26 c11 -28 11 -121 1 -169 l-6 -30 -1005 -5 -1005 -5 -40 -26 c-58 -38 -95 -78 -116 -124 -15 -34 -19 -79 -23 -286 -3 -135 -8 -254 -12 -263 -6 -15 14 -16 225 -16 241 1 279 -5 295 -45 3 -9 6 -409 6 -888 0 -813 1 -874 18 -897 9 -14 157 -164 328 -335 171 -170 323 -329 338 -351 56 -85 56 -83 56 -910 0 -554 -3 -770 -12 -795 -15 -46 -53 -95 -93 -119 -32 -20 -45 -20 -1814 -20 -1517 0 -1786 2 -1809 14 -37 19 -89 75 -101 109 -15 40 -15 1587 0 1642 6 21 22 55 35 75 13 19 173 184 354 366 l330 332 0 885 0 885 31 26 31 26 221 1 c122 0 249 1 282 1 l60 0 -50 7 -50 6 -5 255 c-6 280 -8 293 -70 364 -18 20 -52 47 -74 59 l-41 22 -1115 5 -1114 5 -13 25 c-16 33 -17 151 0 172 6 9 19 18 27 20 19 6 2088 0 2192 -7z"/> <path d="M2430 4418 c0 -7 0 -374 0 -815 0 -534 -3 -810 -10 -829 -6 -15 -166 -183 -357 -375 -190 -191 -352 -357 -359 -370 -10 -19 -13 -175 -14 -730 0 -389 2 -714 6 -723 6 -15 144 -16 1669 -16 1507 0 1663 1 1669 16 3 9 6 336 6 728 l0 712 -23 30 c-12 17 -176 184 -364 373 l-343 342 -2 832 -3 832 -937 3 c-747 2 -938 0 -938 -10z m1758 -100 c16 -16 17 -856 1 -890 -15 -33 -55 -59 -98 -65 -36 -5 -42 -1 -120 72 -45 42 -102 96 -125 121 l-43 44 -436 0 -436 0 -48 -51 c-26 -29 -83 -83 -127 -121 -75 -67 -81 -70 -119 -65 -27 4 -50 16 -71 36 l-31 31 -3 430 c-2 291 1 437 8 450 11 20 22 20 823 20 619 0 816 -3 825 -12z m-681 -840 c10 -8 13 -120 13 -503 l0 -493 53 -53 c80 -82 124 -195 110 -285 -9 -61 -48 -140 -88 -179 -90 -91 -251 -118 -365 -62 -90 44 -134 93 -164 181 -40 121 -6 242 99 349 l55 56 0 492 c-1 271 3 496 7 500 9 9 201 18 243 11 14 -2 31 -8 37 -14z m347 -1062 c135 -91 252 -220 314 -349 65 -135 82 -206 88 -372 5 -121 3 -152 -15 -228 -72 -295 -265 -522 -534 -631 -116 -47 -169 -57 -311 -63 -268 -11 -480 75 -671 272 -124 127 -185 237 -232 412 -25 95 -25 311 0 408 51 197 133 336 272 463 102 93 259 182 282 159 3 -3 -7 -28 -22 -54 -75 -131 -97 -222 -77 -314 36 -161 137 -278 287 -334 65 -24 191 -25 260 -1 186 64 306 244 293 438 -5 59 -13 86 -52 162 -26 50 -46 96 -46 103 0 21 76 -12 164 -71z"/> <path d="M3308 2299 c-76 -40 -91 -145 -29 -201 76 -68 182 -38 212 60 10 36 9 45 -8 79 -23 45 -75 83 -112 83 -14 -1 -43 -10 -63 -21z"/> </g> </svg> 